<svg width="32" height="18" viewBox="0 0 32 18" fill="none" xmlns="http://www.w3.org/2000/svg">
<path fill-rule="evenodd" clip-rule="evenodd" d="M28.7123 13.9962C25.2327 16.3557 20.1833 17.6099 15.8403 17.6099C10.044 17.6317 4.44698 15.6682 0.142707 12.1028C-0.186942 11.8337 0.106079 11.4637 0.498519 11.6703C5.28832 14.1903 10.7126 15.5157 16.2327 15.5147C20.3546 15.4957 24.4319 14.7298 28.2309 13.2609C28.8222 13.0303 29.314 13.6166 28.7542 14.0058L28.7123 13.9962Z" fill="#F8991D"/>
<path fill-rule="evenodd" clip-rule="evenodd" d="M30.3799 12.2128C29.9273 11.6305 27.4167 11.9403 26.2904 12.0739C25.9483 12.1166 25.8957 11.8121 26.2009 11.5931C28.2062 10.1668 31.4642 10.5781 31.8694 11.0589C32.2747 11.5397 31.7694 14.8838 29.8905 16.481C29.6062 16.7267 29.3273 16.5932 29.4589 16.2727C29.8799 15.2043 30.8273 12.8004 30.3799 12.2181V12.2128Z" fill="#F8991D"/>
<path fill-rule="evenodd" clip-rule="evenodd" d="M19.5778 10.2057V9.72502C19.5778 9.58768 19.6455 9.4901 19.796 9.50095C20.1114 9.5479 20.4324 9.5479 20.7478 9.50095C20.9248 9.46097 21.0888 9.37971 21.2253 9.26435C21.3617 9.14898 21.4665 9.00308 21.5303 8.83955C21.7485 8.35886 21.9065 7.97214 21.9855 7.71915L19.2279 1.13771C19.179 1.02567 19.1677 0.816052 19.401 0.816052H20.3566C20.4258 0.81502 20.4933 0.836646 20.548 0.877372C20.6027 0.918099 20.6413 0.9755 20.6575 1.04013L22.6665 6.39274L24.5852 1.02929C24.6008 0.964333 24.6392 0.906547 24.6941 0.865713C24.7489 0.824879 24.8168 0.803505 24.8861 0.805209H25.8003C26.0298 0.805209 26.0185 1.01483 25.9734 1.12687L23.2233 7.93239C22.8471 8.83955 22.3919 10.2816 21.3234 10.531C20.792 10.6571 20.2338 10.632 19.717 10.4587C19.6718 10.4303 19.6351 10.391 19.6107 10.3447C19.5863 10.2984 19.5749 10.2467 19.5778 10.1949V10.2057Z" fill="#333E47"/>
<path fill-rule="evenodd" clip-rule="evenodd" d="M18.2842 7.44821C18.2842 7.47747 18.2781 7.50644 18.2663 7.53342C18.2546 7.56041 18.2373 7.58488 18.2156 7.6054C18.1939 7.62592 18.1682 7.64208 18.1399 7.65294C18.1116 7.66381 18.0814 7.66916 18.0509 7.66868H17.3662C17.3014 7.6693 17.2386 7.64728 17.1895 7.60672C17.1404 7.56616 17.1082 7.50983 17.0991 7.44821L17.0314 7.00005C16.6944 7.27056 16.313 7.4855 15.9028 7.63615C15.503 7.80694 15.0671 7.88544 14.63 7.86535C14.193 7.84527 13.7669 7.72717 13.3859 7.52049C13.106 7.33714 12.8792 7.08828 12.7272 6.79739C12.5751 6.5065 12.5028 6.18319 12.5169 5.85797C12.5009 5.33589 12.6933 4.82771 13.0548 4.43759C13.3268 4.17649 13.6529 3.97332 14.012 3.84131C14.3711 3.7093 14.7551 3.6514 15.1391 3.67139C15.7543 3.66599 16.3673 3.74386 16.9599 3.90269V3.00276C16.9712 2.08837 16.5686 1.69442 15.5115 1.69442C14.7348 1.69323 13.9632 1.81535 13.2279 2.05584C13.1981 2.05753 13.1683 2.05302 13.1406 2.04261C13.1128 2.03221 13.0877 2.01616 13.067 1.99556C13.0462 1.97497 13.0304 1.95032 13.0205 1.92329C13.0106 1.89627 13.0069 1.86751 13.0097 1.83899V1.33301C13.0145 1.27039 13.0385 1.21056 13.0787 1.16104C13.1189 1.11151 13.1734 1.07452 13.2354 1.05471C14.0051 0.769205 14.8219 0.61864 15.6469 0.610168C16.8508 0.610168 18.2804 0.87039 18.2804 2.65218V7.44821H18.2842ZM16.9712 6.13265V4.77733C16.4774 4.66843 15.973 4.61028 15.4664 4.60385C15.0178 4.57326 14.5743 4.71054 14.2286 4.98695C14.0335 5.19871 13.9298 5.47407 13.9389 5.75677C13.9265 5.92999 13.96 6.10341 14.0364 6.2608C14.1127 6.41819 14.2293 6.5544 14.3753 6.6567C14.5938 6.76066 14.8324 6.81981 15.0759 6.83039C15.3194 6.84097 15.5626 6.80274 15.7899 6.71814C16.2231 6.60744 16.6262 6.40767 16.9712 6.13265Z" fill="#333E47"/>
<path fill-rule="evenodd" clip-rule="evenodd" d="M8.20534 1.7125C9.71018 1.7125 10.1353 2.85819 10.1353 4.17014C10.1353 5.05562 9.97353 5.84351 9.49575 6.29529C9.31519 6.45591 9.10083 6.57743 8.86718 6.65163C8.63353 6.72583 8.38602 6.75098 8.14139 6.72537C7.5021 6.68174 6.89007 6.45937 6.38072 6.08566V2.33414C6.90589 1.94799 7.54427 1.7305 8.20534 1.7125ZM6.14747 10.4408H5.23328C5.20283 10.4412 5.17258 10.4359 5.1443 10.425C5.11603 10.4142 5.09028 10.398 5.06857 10.3775C5.04686 10.357 5.02962 10.3325 5.01785 10.3055C5.00609 10.2785 5.00003 10.2496 5.00003 10.2203V1.05471C4.99952 1.02515 5.00521 0.995795 5.01675 0.968387C5.02829 0.94098 5.04545 0.916082 5.06722 0.895177C5.08898 0.874271 5.11489 0.857783 5.14342 0.846695C5.17195 0.835607 5.20251 0.830145 5.23328 0.830634H5.93303C5.99838 0.830128 6.06165 0.852653 6.11088 0.893948C6.1601 0.935242 6.19186 0.992439 6.20014 1.05471L6.27162 1.53179C6.90275 0.97007 7.72189 0.643252 8.58155 0.610168C10.8388 0.610168 11.5912 2.39558 11.5912 4.25327C11.5912 6.23746 10.4626 7.83493 8.54017 7.83493C7.74905 7.83701 6.98515 7.55763 6.39577 7.05065V10.2167C6.39578 10.2459 6.38972 10.2749 6.37795 10.3019C6.36618 10.3289 6.34894 10.3533 6.32723 10.3739C6.30552 10.3944 6.27978 10.4105 6.2515 10.4214C6.22322 10.4323 6.19297 10.4376 6.16252 10.4371L6.14747 10.4408Z" fill="#333E47"/>
</svg>
