<svg width="35" height="18" viewBox="0 0 35 18" fill="none" xmlns="http://www.w3.org/2000/svg">
<path d="M10.4625 4.9925C10.3295 5.11838 10.1943 5.24311 10.0629 5.3713C9.59653 5.82518 9.24576 6.35296 9.12228 7.01125C8.95391 7.92304 9.13351 8.75918 9.67061 9.5087C9.93945 9.88346 10.2599 10.1947 10.6865 10.3749C10.7364 10.3957 10.7869 10.4141 10.8481 10.4384C10.792 10.5937 10.7437 10.7467 10.6842 10.8957C10.3362 11.7619 9.88445 12.5634 9.26821 13.2586C9.15126 13.387 9.0252 13.5063 8.89105 13.6155C8.44206 13.9908 7.93695 14.1352 7.36729 13.9649C7.0833 13.8794 6.80268 13.7841 6.52038 13.694C6.23201 13.5939 5.93147 13.5355 5.62745 13.5208C5.24749 13.5116 4.89784 13.6288 4.54482 13.7616C4.28006 13.8693 4.00924 13.9605 3.73383 14.0347C3.30055 14.141 2.90824 14.0035 2.54793 13.7529C2.19441 13.4958 1.89 13.1737 1.64994 12.803C1.02354 11.8963 0.553295 10.8854 0.259755 9.81475C-0.00347714 8.86548 -0.0668106 7.86934 0.0739852 6.89287C0.202509 6.02266 0.517925 5.23734 1.1134 4.58829C1.7302 3.91614 2.489 3.63954 3.37968 3.72847C3.8225 3.77351 4.24624 3.90575 4.67053 4.03278C4.84732 4.08591 5.0286 4.12575 5.20708 4.17253C5.45778 4.23055 5.71909 4.21738 5.96307 4.13441C6.31216 4.02874 6.65676 3.90921 7.00529 3.80296C7.51701 3.63876 8.06008 3.60624 8.58686 3.70826C9.27831 3.84569 9.82495 4.22796 10.2824 4.76383C10.3385 4.83081 10.3946 4.89895 10.4507 4.96709C10.4556 4.97509 10.4595 4.98361 10.4625 4.9925Z" fill="#000003"/>
<path d="M7.86283 0.610168C7.87744 0.759232 7.88362 0.909043 7.88135 1.05884C7.83398 1.8282 7.51924 2.55437 6.99459 3.10473C6.75438 3.36343 6.48947 3.59094 6.16283 3.72376C5.88221 3.83924 5.58812 3.86119 5.29291 3.88371C5.28842 3.88371 5.28337 3.87851 5.27832 3.8762C5.31985 2.11153 6.18697 0.965298 7.86283 0.610168Z" fill="#000003"/>
<path d="M14.1553 2.71146C15.0564 2.56091 15.9683 2.4879 16.8812 2.49319C18.2843 2.49319 19.3142 2.82868 19.968 3.43327C20.5719 3.97087 20.9311 4.79431 20.9311 5.8008C20.9311 6.82519 20.6376 7.63188 20.0825 8.21972C19.3316 9.04258 18.107 9.46238 16.719 9.46238C16.2947 9.46238 15.903 9.44563 15.5763 9.3619V13.8972H14.1564L14.1553 2.71146ZM15.5752 8.17006C15.8856 8.25436 16.2773 8.28555 16.7538 8.28555C18.4678 8.28555 19.5129 7.42919 19.5129 5.86663C19.5129 4.37162 18.4841 3.64981 16.9166 3.64981C16.2964 3.64981 15.8227 3.70005 15.578 3.7653L15.5752 8.17006Z" fill="#000003"/>
<path d="M26.0555 13.8983L25.9432 12.8733H25.8944C25.4538 13.5119 24.6036 14.083 23.4811 14.083C21.881 14.083 21.0649 12.9241 21.0649 11.7478C21.0649 9.78453 22.7627 8.7076 25.8153 8.72434V8.55688C25.8153 7.88474 25.6362 6.67557 24.0193 6.67557C23.2846 6.67557 22.5174 6.91059 21.9624 7.28015L21.6357 6.306C22.2884 5.86888 23.2353 5.58362 24.2315 5.58362C26.6476 5.58362 27.2352 7.28015 27.2352 8.90913V11.9494C27.2352 12.655 27.2678 13.3439 27.366 13.8983H26.0555ZM25.8433 9.74931C24.2758 9.71582 22.4967 10.0011 22.4967 11.5798C22.4967 12.5378 23.1168 12.9911 23.8515 12.9911C24.8797 12.9911 25.5352 12.3189 25.7597 11.6306C25.8105 11.4791 25.8382 11.3203 25.8417 11.16L25.8433 9.74931Z" fill="#000003"/>
<path d="M29.1388 5.76837L30.8679 10.5721C31.0475 11.1097 31.2434 11.7478 31.3731 12.2352H31.4056C31.5521 11.7478 31.7154 11.1265 31.9107 10.5387L33.4783 5.76837H34.9936L32.8384 11.563C31.8103 14.3515 31.1081 15.7784 30.1288 16.6526C29.4267 17.2913 28.7257 17.5431 28.3654 17.6101L28.0062 16.3674C28.4661 16.2112 28.8928 15.966 29.2634 15.645C29.785 15.2003 30.1987 14.6366 30.4717 13.9987C30.5368 13.8474 30.584 13.7302 30.584 13.6459C30.584 13.5616 30.5514 13.4444 30.4863 13.2596L27.5718 5.76837H29.1388Z" fill="#000003"/>
</svg>
