<svg width="15" height="16" viewBox="0 0 15 16" fill="none" xmlns="http://www.w3.org/2000/svg">
<path d="M14.7825 14.8189C14.8957 15.4334 14.4239 16 13.799 16H1.20095C0.576136 16 0.104335 15.4334 0.217487 14.8189L2.34921 3.24228C2.43657 2.76782 2.85023 2.42338 3.33267 2.42338H4.98625C5.0075 1.10772 6.09999 0.0480018 7.46124 0.00736178C8.82249 0.0480018 9.91376 1.10772 9.93625 2.42338H11.6673C12.1498 2.42338 12.5634 2.76782 12.6508 3.24228L14.7825 14.8189ZM7.5 1.21725C6.1975 1.20493 6.2 1.63326 6.2 2.42338H8.76124C8.76248 1.68247 8.8 1.2283 7.5 1.21725ZM9.93999 3.69231H8.76123H6.19998H4.98248H3.59373L1.40623 14.7692H13.555L11.3675 3.69231H9.93999ZM7.53874 0C7.51249 0 7.48749 0.00615563 7.46124 0.00736178C7.43499 0.00615563 7.41 0 7.38249 0H7.53874Z" fill="#222525"/>
</svg>
