<svg width="20" height="20" viewBox="0 0 20 20" fill="none" xmlns="http://www.w3.org/2000/svg">
<path d="M19.1517 8.17212H18.3999V8.13338H9.99988V11.8667H15.2746C14.5051 14.04 12.4373 15.6001 9.99988 15.6001C6.90726 15.6001 4.39985 13.0927 4.39985 10.0001C4.39985 6.90745 6.90726 4.40004 9.99988 4.40004C11.4274 4.40004 12.7262 4.93857 13.715 5.81824L16.355 3.1783C14.688 1.62476 12.4583 0.666687 9.99988 0.666687C4.84552 0.666687 0.666504 4.8457 0.666504 10.0001C0.666504 15.1544 4.84552 19.3334 9.99988 19.3334C15.1542 19.3334 19.3332 15.1544 19.3332 10.0001C19.3332 9.37426 19.2688 8.76339 19.1517 8.17212Z" fill="#FFC107"/>
<path d="M1.74219 5.65584L4.80867 7.90472C5.6384 5.85044 7.64788 4.40004 9.99942 4.40004C11.427 4.40004 12.7257 4.93857 13.7146 5.81824L16.3545 3.1783C14.6876 1.62476 12.4578 0.666687 9.99942 0.666687C6.41447 0.666687 3.30553 2.69063 1.74219 5.65584Z" fill="#FF3D00"/>
<path d="M9.99995 19.3337C12.4108 19.3337 14.6013 18.4111 16.2575 16.9108L13.3688 14.4664C12.4318 15.1762 11.267 15.6004 9.99995 15.6004C7.57234 15.6004 5.51107 14.0524 4.73453 11.8922L1.69092 14.2372C3.23559 17.2598 6.37254 19.3337 9.99995 19.3337Z" fill="#4CAF50"/>
<path d="M19.1518 8.17216H18.4V8.13342H10V11.8668H15.2748C14.9052 12.9107 14.2336 13.8109 13.3675 14.4666C13.3679 14.4661 13.3684 14.4661 13.3689 14.4656L16.2576 16.9101C16.0532 17.0958 19.3334 14.6668 19.3334 10.0001C19.3334 9.37429 19.269 8.76343 19.1518 8.17216Z" fill="#1976D2"/>
</svg>
