<svg width="17" height="16" viewBox="0 0 17 16" fill="none" xmlns="http://www.w3.org/2000/svg">
<rect width="17" height="16" fill="#333333"/>
<g clip-path="url(#clip0)">
<rect width="360" height="3786" transform="translate(-314 -540)" fill="white"/>
<g filter="url(#filter0_d)">
<circle cx="8" cy="8" r="18" fill="white"/>
</g>
<g>
<path fill-rule="evenodd" clip-rule="evenodd" d="M5.61538 2.26775C3.74729 2.26775 2.22462 3.89385 2.15625 5.9277L2.15428 5.98631C2.15429 5.98715 2.1543 5.98799 2.15431 5.98883L2.15445 5.99864L2.1543 6.00846C2.154 6.02926 2.15385 6.0501 2.15385 6.07099C2.15385 6.53973 2.23076 6.98728 2.37097 7.40021L2.37489 7.41177L2.37841 7.42348C2.94127 9.3012 4.47739 10.874 5.96173 12.0057C6.69272 12.563 7.3876 12.9957 7.8998 13.2889C8.15045 13.4324 8.35634 13.5419 8.5 13.6157C8.64367 13.5419 8.84959 13.4324 9.10028 13.2889C9.61252 12.9957 10.3075 12.5629 11.0385 12.0056C12.5229 10.8738 14.0591 9.30084 14.6218 7.423L14.6253 7.41129L14.6292 7.39974C14.7693 6.98694 14.8462 6.53955 14.8462 6.07099C14.8462 6.05011 14.846 6.02928 14.8457 6.0085L14.8456 5.99868L14.8457 5.98887C14.8457 5.98803 14.8457 5.98719 14.8457 5.98635L14.8437 5.9277C14.7754 3.89385 13.2527 2.26775 11.3846 2.26775C10.4159 2.26775 9.54101 2.70411 8.91206 3.4093L8.5 3.87132L8.08794 3.4093C7.45899 2.70411 6.58409 2.26775 5.61538 2.26775ZM8.5 14.3114C8.27452 14.8948 8.27437 14.8947 8.27419 14.8947L8.27374 14.8944L8.27247 14.8938L8.26845 14.892L8.2546 14.8854C8.24283 14.8798 8.22603 14.8717 8.20447 14.8612C8.16137 14.8401 8.09927 14.8093 8.02053 14.7689C7.86309 14.6882 7.63882 14.569 7.36666 14.4132C6.82315 14.1021 6.08445 13.6424 5.30392 13.0473C3.76782 11.8761 1.97265 10.1082 1.28596 7.83168C1.10086 7.28239 1 6.68892 1 6.07099C1 6.04661 1.00016 6.02226 1.00047 5.99796C1.00016 5.97204 1 5.94608 1 5.92008C1 5.89094 1.00171 5.86244 1.00493 5.83469C1.11747 3.14353 3.13847 1 5.61538 1C6.70667 1 7.71012 1.41673 8.5 2.11227C9.28989 1.41673 10.2933 1 11.3846 1C13.8615 1 15.8825 3.14354 15.9951 5.8347C15.9983 5.86244 16 5.89094 16 5.92007C16 5.94609 15.9998 5.97207 15.9995 5.99802C15.9998 6.02231 16 6.04663 16 6.07099C16 6.68868 15.8992 7.28193 15.7143 7.83103C15.0278 10.1077 13.2325 11.8759 11.6963 13.0471C10.9157 13.6422 10.177 14.102 9.63342 14.4132C9.36123 14.569 9.13694 14.6881 8.97949 14.7689C8.90074 14.8093 8.83864 14.8401 8.79553 14.8612C8.77398 14.8717 8.75717 14.8798 8.74539 14.8854L8.73155 14.892L8.72753 14.8938L8.72626 14.8944L8.72581 14.8947C8.72563 14.8947 8.72548 14.8948 8.5 14.3114ZM8.5 14.3114L8.72548 14.8948L8.5 15L8.27452 14.8948L8.5 14.3114Z" fill="#3D4853"/>
<path d="M8.5 14.3114C8.27452 14.8948 8.27437 14.8947 8.27419 14.8947L8.27374 14.8944L8.27247 14.8938L8.26845 14.892L8.25461 14.8854C8.24283 14.8798 8.22603 14.8717 8.20447 14.8612C8.16137 14.8401 8.09927 14.8093 8.02053 14.7689C7.86309 14.6882 7.63882 14.569 7.36666 14.4132C6.82315 14.1021 6.08445 13.6424 5.30391 13.0473C3.76782 11.8761 1.97265 10.1082 1.28596 7.83168C1.10086 7.28239 1 6.68892 1 6.07099C1 6.04661 1.00016 6.02227 1.00047 5.99796C1.00016 5.97204 1 5.94608 1 5.92008C1 5.89094 1.00171 5.86244 1.00493 5.83469C1.11747 3.14353 3.13847 1 5.61538 1C6.70667 1 7.71012 1.41673 8.5 2.11227C9.28989 1.41673 10.2933 1 11.3846 1C13.8615 1 15.8825 3.14354 15.9951 5.8347C15.9983 5.86244 16 5.89094 16 5.92007C16 5.94609 15.9998 5.97207 15.9995 5.99802C15.9998 6.02231 16 6.04663 16 6.07099C16 6.68868 15.8992 7.28193 15.7143 7.83103C15.0278 10.1077 13.2325 11.8759 11.6963 13.0471C10.9157 13.6422 10.177 14.102 9.63342 14.4132C9.36123 14.569 9.13694 14.6881 8.97949 14.7689C8.90074 14.8093 8.83864 14.8401 8.79553 14.8612C8.77398 14.8717 8.75717 14.8798 8.74539 14.8854L8.73155 14.892L8.72753 14.8938L8.72626 14.8944L8.72581 14.8947C8.72563 14.8947 8.72548 14.8948 8.5 14.3114ZM8.5 14.3114L8.72548 14.8948L8.5 15L8.27452 14.8948L8.5 14.3114ZM2.15625 5.9277C2.22462 3.89385 3.74729 2.26775 5.61538 2.26775C6.58409 2.26775 7.45899 2.70411 8.08794 3.4093L8.5 3.87132L8.91206 3.4093C9.54101 2.70411 10.4159 2.26775 11.3846 2.26775C13.2527 2.26775 14.7754 3.89385 14.8437 5.9277L14.8457 5.98635C14.8457 5.98719 14.8457 5.98803 14.8457 5.98887L14.8456 5.99868L14.8457 6.0085C14.846 6.02928 14.8462 6.05011 14.8462 6.07099C14.8462 6.53955 14.7693 6.98694 14.6292 7.39974L14.6253 7.41129L14.6218 7.423C14.0591 9.30084 12.5229 10.8738 11.0385 12.0056C10.3075 12.5629 9.61252 12.9957 9.10028 13.2889C8.84959 13.4324 8.64367 13.5419 8.5 13.6157C8.35634 13.5419 8.15045 13.4324 7.8998 13.2889C7.3876 12.9957 6.69272 12.563 5.96173 12.0057C4.47739 10.874 2.94127 9.3012 2.37841 7.42348L2.37489 7.41177L2.37097 7.40021C2.23076 6.98728 2.15385 6.53973 2.15385 6.07099C2.15385 6.0501 2.154 6.02926 2.1543 6.00846L2.15445 5.99864L2.15431 5.98883C2.1543 5.98799 2.15429 5.98715 2.15428 5.98631L2.15625 5.9277Z" stroke="#3D4853" stroke-width="0.3"/>
</g>
</g>
<defs>
<filter id="filter0_d" x="-15" y="-13" width="46" height="46" filterUnits="userSpaceOnUse" color-interpolation-filters="sRGB">
<feFlood flood-opacity="0" result="BackgroundImageFix"/>
<feColorMatrix in="SourceAlpha" type="matrix" values="0 0 0 0 0 0 0 0 0 0 0 0 0 0 0 0 0 0 127 0"/>
<feOffset dy="2"/>
<feGaussianBlur stdDeviation="2.5"/>
<feColorMatrix type="matrix" values="0 0 0 0 0.133333 0 0 0 0 0.133333 0 0 0 0 0.133333 0 0 0 0.09 0"/>
<feBlend mode="normal" in2="BackgroundImageFix" result="effect1_dropShadow"/>
<feBlend mode="normal" in="SourceGraphic" in2="effect1_dropShadow" result="shape"/>
</filter>
<clipPath id="clip0">
<rect width="360" height="3786" fill="white" transform="translate(-314 -540)"/>
</clipPath>
</defs>
</svg>
