<svg width="24" height="22" viewBox="0 0 24 22" fill="none" xmlns="http://www.w3.org/2000/svg">
<g>
<path fill-rule="evenodd" clip-rule="evenodd" d="M7.76923 2.81107C5.02936 2.81107 2.7961 5.13407 2.69583 8.03957L2.69294 8.1233C2.69296 8.1245 2.69298 8.1257 2.69299 8.1269L2.69319 8.14092L2.69298 8.15495C2.69253 8.18466 2.69231 8.21443 2.69231 8.24427C2.69231 8.9139 2.80511 9.55326 3.01076 10.1432L3.01651 10.1597L3.02166 10.1764C3.8472 12.8589 6.10017 15.1057 8.2772 16.7224C9.34933 17.5186 10.3685 18.1367 11.1197 18.5556C11.4873 18.7606 11.7893 18.917 12 19.0225C12.2107 18.917 12.5127 18.7606 12.8804 18.5556C13.6317 18.1367 14.6509 17.5185 15.7231 16.7222C17.9003 15.1054 20.1533 12.8583 20.9786 10.1757L20.9837 10.159L20.9895 10.1425C21.195 9.55278 21.3077 8.91365 21.3077 8.24427C21.3077 8.21444 21.3075 8.18468 21.307 8.15499L21.3068 8.14098L21.307 8.12696C21.307 8.12576 21.307 8.12456 21.3071 8.12335L21.3042 8.03957C21.2039 5.13407 18.9706 2.81107 16.2308 2.81107C14.81 2.81107 13.5268 3.43444 12.6044 4.44186L12 5.10188L11.3956 4.44186C10.4732 3.43444 9.18999 2.81107 7.76923 2.81107ZM12 20.0162C11.6693 20.8497 11.6691 20.8496 11.6688 20.8495L11.6682 20.8492L11.6663 20.8484L11.6604 20.8457L11.6401 20.8363C11.6228 20.8282 11.5982 20.8167 11.5666 20.8017C11.5033 20.7716 11.4123 20.7276 11.2968 20.6699C11.0659 20.5545 10.7369 20.3843 10.3378 20.1618C9.54062 19.7173 8.45719 19.0605 7.31241 18.2104C5.05948 16.5373 2.42655 14.0116 1.41941 10.7595C1.14792 9.97484 1 9.12703 1 8.24427C1 8.20944 1.00023 8.17466 1.00069 8.13994C1.00023 8.10291 1 8.06583 1 8.02868C0.999999 7.98706 1.00251 7.94634 1.00724 7.9067C1.1723 4.06219 4.13642 1 7.76923 1C9.36979 1 10.8415 1.59532 12 2.58896C13.1585 1.59532 14.6302 1 16.2308 1C19.8636 1 22.8277 4.06219 22.9928 7.90671C22.9975 7.94634 23 7.98705 23 8.02867C23 8.06584 22.9998 8.10296 22.9993 8.14003C22.9998 8.17473 23 8.20948 23 8.24427C23 9.12668 22.8522 9.97418 22.5809 10.7586C21.574 14.011 18.941 16.5369 16.6879 18.2101C15.5431 19.0604 14.4596 19.7172 13.6623 20.1617C13.2631 20.3843 12.9342 20.5545 12.7033 20.6698C12.5878 20.7275 12.4967 20.7716 12.4334 20.8017C12.4018 20.8167 12.3772 20.8282 12.3599 20.8363L12.3396 20.8457L12.3337 20.8484L12.3318 20.8492L12.3312 20.8495C12.3309 20.8496 12.3307 20.8497 12 20.0162ZM12 20.0162L12.3307 20.8497L12 21L11.6693 20.8497L12 20.0162Z" fill="#3D4853"/>
<path d="M12 20.0162C11.6693 20.8497 11.6691 20.8496 11.6688 20.8495L11.6682 20.8492L11.6663 20.8484L11.6604 20.8457L11.6401 20.8363C11.6228 20.8282 11.5982 20.8167 11.5666 20.8017C11.5033 20.7716 11.4123 20.7276 11.2968 20.6699C11.0659 20.5545 10.7369 20.3843 10.3378 20.1618C9.54062 19.7173 8.45719 19.0605 7.31241 18.2104C5.05948 16.5373 2.42655 14.0116 1.41941 10.7595C1.14792 9.97484 1 9.12703 1 8.24427C1 8.20944 1.00023 8.17466 1.00069 8.13994C1.00023 8.10291 1 8.06583 1 8.02868C0.999999 7.98706 1.00251 7.94634 1.00724 7.9067C1.1723 4.06219 4.13642 1 7.76923 1C9.36979 1 10.8415 1.59532 12 2.58896C13.1585 1.59532 14.6302 1 16.2308 1C19.8636 1 22.8277 4.06219 22.9928 7.90671C22.9975 7.94634 23 7.98705 23 8.02867C23 8.06584 22.9998 8.10296 22.9993 8.14003C22.9998 8.17473 23 8.20948 23 8.24427C23 9.12668 22.8522 9.97418 22.5809 10.7586C21.574 14.011 18.941 16.5369 16.6879 18.2101C15.5431 19.0604 14.4596 19.7172 13.6623 20.1617C13.2631 20.3843 12.9342 20.5545 12.7033 20.6698C12.5878 20.7275 12.4967 20.7716 12.4334 20.8017C12.4018 20.8167 12.3772 20.8282 12.3599 20.8363L12.3396 20.8457L12.3337 20.8484L12.3318 20.8492L12.3312 20.8495C12.3309 20.8496 12.3307 20.8497 12 20.0162ZM12 20.0162L12.3307 20.8497L12 21L11.6693 20.8497L12 20.0162ZM2.69583 8.03957C2.7961 5.13407 5.02936 2.81107 7.76923 2.81107C9.18999 2.81107 10.4732 3.43444 11.3956 4.44186L12 5.10188L12.6044 4.44186C13.5268 3.43444 14.81 2.81107 16.2308 2.81107C18.9706 2.81107 21.2039 5.13407 21.3042 8.03957L21.3071 8.12335C21.307 8.12456 21.307 8.12576 21.307 8.12696L21.3068 8.14098L21.307 8.15499C21.3075 8.18468 21.3077 8.21444 21.3077 8.24427C21.3077 8.91365 21.195 9.55278 20.9895 10.1425L20.9837 10.159L20.9786 10.1757C20.1533 12.8583 17.9003 15.1054 15.7231 16.7222C14.6509 17.5185 13.6317 18.1367 12.8804 18.5556C12.5127 18.7606 12.2107 18.917 12 19.0225C11.7893 18.917 11.4873 18.7606 11.1197 18.5556C10.3685 18.1367 9.34933 17.5186 8.27721 16.7224C6.10017 15.1057 3.8472 12.8589 3.02166 10.1764L3.01651 10.1597L3.01076 10.1432C2.80511 9.55326 2.69231 8.9139 2.69231 8.24427C2.69231 8.21443 2.69253 8.18466 2.69298 8.15495L2.69319 8.14092L2.69299 8.1269C2.69298 8.1257 2.69296 8.1245 2.69294 8.1233L2.69583 8.03957Z" stroke-width="0.3"/>
</g>
</svg>
