<svg width="10" height="12" viewBox="0 0 10 12" fill="none" xmlns="http://www.w3.org/2000/svg">
<path fill-rule="evenodd" clip-rule="evenodd" d="M5 0.917214C2.73275 0.917214 0.909091 2.73571 0.909091 4.96129C0.909091 6.65348 1.94053 8.16782 3.05014 9.29751C3.59758 9.85487 4.14663 10.3007 4.5593 10.6073C4.73544 10.7382 4.886 10.8431 5 10.92C5.114 10.8431 5.26456 10.7382 5.44071 10.6073C5.85337 10.3007 6.40242 9.85487 6.94986 9.29751C8.05947 8.16782 9.09091 6.65348 9.09091 4.96129C9.09091 2.73571 7.26725 0.917214 5 0.917214ZM5 11.4652C4.76614 11.8584 4.76601 11.8583 4.76586 11.8583L4.76439 11.8574L4.76099 11.8553L4.74935 11.8481C4.73947 11.842 4.7254 11.8332 4.70742 11.8219C4.67145 11.7991 4.6198 11.7659 4.55472 11.7226C4.4246 11.6362 4.24045 11.5095 4.02025 11.3459C3.58064 11.0193 2.99333 10.5427 2.40441 9.94314C1.24128 8.75895 0 7.02135 0 4.96129C0 2.21335 2.24648 0 5 0C7.75353 0 10 2.21335 10 4.96129C10 7.02135 8.75872 8.75895 7.59559 9.94314C7.00667 10.5427 6.41936 11.0193 5.97975 11.3459C5.75955 11.5095 5.57541 11.6362 5.44528 11.7226C5.3802 11.7659 5.32855 11.7991 5.29259 11.8219C5.2746 11.8332 5.26053 11.842 5.25065 11.8481L5.23901 11.8553L5.23561 11.8574L5.23453 11.858C5.23438 11.8581 5.23386 11.8584 5 11.4652ZM5 11.4652L5.23386 11.8584L5 12L4.76586 11.8583L5 11.4652Z" fill="black"/>
<path fill-rule="evenodd" clip-rule="evenodd" d="M5 5.96189C5.50208 5.96189 5.90909 5.55124 5.90909 5.04468C5.90909 4.53811 5.50208 4.12746 5 4.12746C4.49792 4.12746 4.09091 4.53811 4.09091 5.04468C4.09091 5.55124 4.49792 5.96189 5 5.96189ZM5 6.87911C6.00415 6.87911 6.81818 6.0578 6.81818 5.04468C6.81818 4.03155 6.00415 3.21025 5 3.21025C3.99585 3.21025 3.18182 4.03155 3.18182 5.04468C3.18182 6.0578 3.99585 6.87911 5 6.87911Z" fill="black"/>
</svg>
