<svg width="36" height="22" viewBox="0 0 36 22" fill="none" xmlns="http://www.w3.org/2000/svg">
<rect x="12.8999" y="2.27014" width="10.21" height="16.68" fill="#F26122"/>
<path d="M13.9998 10.6102C13.9829 7.3637 15.4575 4.28922 17.9998 2.27017C13.65 -1.15054 7.4017 -0.653815 3.64705 3.41117C-0.107609 7.47616 -0.107609 13.7442 3.64705 17.8092C7.4017 21.8741 13.65 22.3709 17.9998 18.9502C15.4575 16.9311 13.9829 13.8566 13.9998 10.6102Z" fill="#EA1D25"/>
<path fill-rule="evenodd" clip-rule="evenodd" d="M34.1399 16.8401V17.1801H34.0799V16.8401H33.9399V16.7701H34.2899V16.8401H34.1399ZM34.8199 16.7701V17.1801H34.7499V16.8701L34.6399 17.1401H34.5599L34.4399 16.8701V17.1801H34.3699V16.7701H34.4699L34.5999 17.0601L34.7199 16.7701H34.8199Z" fill="#F69E1E"/>
<path d="M35.1595 10.6102C35.1569 14.6695 32.8384 18.3716 29.1874 20.146C25.5364 21.9204 21.193 21.4562 17.9995 18.9502C22.5996 15.3281 23.3962 8.66445 19.7795 4.06015C19.2611 3.39342 18.6633 2.79233 17.9995 2.27015C21.193 -0.235851 25.5364 -0.700102 29.1874 1.07433C32.8384 2.84876 35.1569 6.55081 35.1595 10.6102Z" fill="#F69E1E"/>
</svg>
