<svg width="18" height="21" viewBox="0 0 18 21" fill="none" xmlns="http://www.w3.org/2000/svg">
<path d="M5.33998 19.9302L5.68998 17.7302H4.90998H1.22998L3.78998 1.47016C3.79681 1.41978 3.82168 1.37359 3.85998 1.34016C3.90018 1.3091 3.9492 1.29159 3.99998 1.29016H10.21C12.28 1.29016 13.7 1.72016 14.45 2.57016C14.7818 2.92669 15.0131 3.36496 15.12 3.84016C15.2366 4.41766 15.2366 5.01266 15.12 5.59016V6.09016L15.47 6.29016C15.7364 6.42296 15.9769 6.60247 16.18 6.82016C16.4856 7.18916 16.683 7.63571 16.75 8.11016C16.8249 8.73038 16.7979 9.35867 16.67 9.97016C16.5381 10.713 16.2775 11.427 15.9 12.0802C15.5949 12.6038 15.1825 13.0571 14.69 13.4102C14.1942 13.7482 13.6423 13.9954 13.06 14.1402C12.4063 14.3051 11.7342 14.3857 11.06 14.3802H10.57C10.2266 14.3802 9.89398 14.5005 9.62998 14.7202C9.36461 14.9438 9.1903 15.2568 9.13998 15.6002V15.8002L8.52998 19.6802V19.8302C8.53722 19.8563 8.53722 19.884 8.52998 19.9102H8.46998L5.33998 19.9302Z" fill="#253D80"/>
<path d="M15.7998 5.69019L15.7398 6.06019C14.9198 10.2602 12.1098 11.7202 8.52976 11.7202H6.70976C6.27186 11.7197 5.89864 12.0377 5.82976 12.4702L4.89976 18.3902L4.62976 20.0702C4.60949 20.2047 4.64851 20.3414 4.73673 20.445C4.82495 20.5486 4.95372 20.6088 5.08976 20.6102H8.32976C8.71394 20.6098 9.04066 20.3298 9.09976 19.9502V19.7902L9.70976 15.9202V15.7102C9.76433 15.3321 10.0878 15.0512 10.4698 15.0502H10.9998C14.1298 15.0502 16.5898 13.7802 17.2998 10.0502C17.6839 8.77533 17.4469 7.39406 16.6598 6.32019C16.41 6.064 16.1193 5.8511 15.7998 5.69019V5.69019Z" fill="#189BD7"/>
<path d="M14.9399 5.3502L14.5599 5.2502L14.1399 5.1702C13.6103 5.09101 13.0753 5.05422 12.5399 5.0602H7.6599C7.54591 5.05707 7.43281 5.08106 7.3299 5.1302C7.09802 5.23876 6.93639 5.45677 6.8999 5.7102L5.8999 12.2802V12.4702C5.96878 12.0378 6.34201 11.7197 6.7799 11.7202H8.5999C12.1799 11.7202 14.9899 10.2602 15.8099 6.0602L15.8699 5.6902C15.6545 5.57889 15.4304 5.48525 15.1999 5.4102L14.9399 5.3502Z" fill="#242E65"/>
<path d="M6.89989 5.71017C6.93638 5.45675 7.09801 5.23873 7.32989 5.13017C7.4328 5.08103 7.5459 5.05704 7.65989 5.06017H12.5399C13.0753 5.0542 13.6103 5.09098 14.1399 5.17017L14.5599 5.25017L14.9399 5.35017L15.1299 5.41017C15.3604 5.48522 15.5845 5.57886 15.7999 5.69017C16.1249 4.4408 15.827 3.11135 14.9999 2.12017C13.9999 1.06017 12.3599 0.610169 10.2199 0.610169H3.99989C3.56199 0.609638 3.18877 0.927724 3.11989 1.36017L0.52989 17.7702C0.506704 17.9249 0.551786 18.0821 0.653464 18.2011C0.755142 18.32 0.903415 18.389 1.05989 18.3902H4.89989L5.89989 12.2802L6.89989 5.71017Z" fill="#253D80"/>
</svg>
