<svg width="12" height="12" viewBox="0 0 12 12" fill="#FFFFFF" xmlns="http://www.w3.org/2000/svg">
<path d="M6 12C2.69147 12 0 9.30853 0 6C0 2.69147 2.69147 0 6 0C9.30853 0 12 2.69147 12 6C12 9.30853 9.30853 12 6 12ZM6 0.75C3.10501 0.75 0.75 3.10501 0.75 6C0.75 8.89499 3.10501 11.25 6 11.25C8.89499 11.25 11.25 8.89499 11.25 6C11.25 3.10501 8.89499 0.75 6 0.75Z" fill="#FFFFFF"/>
<path d="M6.49994 8.99997C6.49994 9.27609 6.27609 9.49994 5.99997 9.49994C5.72385 9.49994 5.5 9.27609 5.5 8.99997C5.5 8.72385 5.72385 8.5 5.99997 8.5C6.27609 8.5 6.49994 8.72385 6.49994 8.99997Z" fill="#FFFFFF"/>
<path d="M6.00003 7.37506C5.79303 7.37506 5.62503 7.20706 5.62503 7.00006V6.49506C5.62503 6.01907 5.92706 5.59253 6.37604 5.43405C6.97351 5.22357 7.37506 4.58701 7.37506 4.12503C7.37506 3.36652 6.75854 2.75 6.00003 2.75C5.24152 2.75 4.625 3.36652 4.625 4.12503C4.625 4.33203 4.457 4.50003 4.25 4.50003C4.043 4.50003 3.875 4.33203 3.875 4.12503C3.875 2.95352 4.82806 2 6.00003 2C7.172 2 8.12506 2.95352 8.12506 4.12503C8.12506 4.95908 7.46652 5.84457 6.62552 6.14157C6.47556 6.19403 6.37503 6.33649 6.37503 6.49551V7.00006C6.37503 7.20706 6.20703 7.37506 6.00003 7.37506V7.37506Z" fill="#FFFFFF"/>
</svg>
