<svg width="18" height="18" viewBox="0 0 18 18" fill="#000000" xmlns="http://www.w3.org/2000/svg">
<path fill-rule="evenodd" clip-rule="evenodd" d="M7.66667 2.33333C4.72115 2.33333 2.33333 4.72115 2.33333 7.66667C2.33333 10.6122 4.72115 13 7.66667 13C10.6122 13 13 10.6122 13 7.66667C13 4.72115 10.6122 2.33333 7.66667 2.33333ZM1 7.66667C1 3.98477 3.98477 1 7.66667 1C11.3486 1 14.3333 3.98477 14.3333 7.66667C14.3333 11.3486 11.3486 14.3333 7.66667 14.3333C3.98477 14.3333 1 11.3486 1 7.66667Z"/>
<path fill-rule="evenodd" clip-rule="evenodd" d="M11.8619 11.8619C12.1223 11.6016 12.5444 11.6016 12.8047 11.8619L16.8047 15.8619C17.0651 16.1223 17.0651 16.5444 16.8047 16.8047C16.5444 17.0651 16.1223 17.0651 15.8619 16.8047L11.8619 12.8047C11.6016 12.5444 11.6016 12.1223 11.8619 11.8619Z"/>
<path d="M12.8047 11.8619L12.6987 11.968L12.8047 11.8619ZM11.8619 11.8619L11.968 11.968L11.8619 11.8619ZM16.8047 15.8619L16.6987 15.968L16.8047 15.8619ZM16.8047 16.8047L16.6987 16.6987L16.6987 16.6987L16.8047 16.8047ZM15.8619 16.8047L15.968 16.6987L15.8619 16.8047ZM11.8619 12.8047L11.968 12.6987L11.8619 12.8047ZM2.48333 7.66667C2.48333 4.80399 4.80399 2.48333 7.66667 2.48333V2.18333C4.63831 2.18333 2.18333 4.63831 2.18333 7.66667H2.48333ZM7.66667 12.85C4.80399 12.85 2.48333 10.5293 2.48333 7.66667H2.18333C2.18333 10.695 4.63831 13.15 7.66667 13.15V12.85ZM12.85 7.66667C12.85 10.5293 10.5293 12.85 7.66667 12.85V13.15C10.695 13.15 13.15 10.695 13.15 7.66667H12.85ZM7.66667 2.48333C10.5293 2.48333 12.85 4.80399 12.85 7.66667H13.15C13.15 4.63831 10.695 2.18333 7.66667 2.18333V2.48333ZM7.66667 0.85C3.90193 0.85 0.85 3.90193 0.85 7.66667H1.15C1.15 4.06761 4.06761 1.15 7.66667 1.15V0.85ZM14.4833 7.66667C14.4833 3.90193 11.4314 0.85 7.66667 0.85V1.15C11.2657 1.15 14.1833 4.06761 14.1833 7.66667H14.4833ZM7.66667 14.4833C11.4314 14.4833 14.4833 11.4314 14.4833 7.66667H14.1833C14.1833 11.2657 11.2657 14.1833 7.66667 14.1833V14.4833ZM0.85 7.66667C0.85 11.4314 3.90193 14.4833 7.66667 14.4833V14.1833C4.06761 14.1833 1.15 11.2657 1.15 7.66667H0.85ZM12.9108 11.7559C12.5919 11.4369 12.0748 11.4369 11.7559 11.7559L11.968 11.968C12.1698 11.7662 12.4969 11.7662 12.6987 11.968L12.9108 11.7559ZM16.9108 15.7559L12.9108 11.7559L12.6987 11.968L16.6987 15.968L16.9108 15.7559ZM16.9108 16.9108C17.2297 16.5919 17.2297 16.0748 16.9108 15.7559L16.6987 15.968C16.9004 16.1698 16.9004 16.4969 16.6987 16.6987L16.9108 16.9108ZM15.7559 16.9108C16.0748 17.2297 16.5919 17.2297 16.9108 16.9108L16.6987 16.6987C16.4969 16.9004 16.1698 16.9004 15.968 16.6987L15.7559 16.9108ZM11.7559 12.9108L15.7559 16.9108L15.968 16.6987L11.968 12.6987L11.7559 12.9108ZM11.7559 11.7559C11.4369 12.0748 11.4369 12.5919 11.7559 12.9108L11.968 12.6987C11.7662 12.4969 11.7662 12.1698 11.968 11.968L11.7559 11.7559Z"/>
</svg>
