<svg width="15" height="16" viewBox="0 0 15 16" fill="none" xmlns="http://www.w3.org/2000/svg">
<path d="M0.028574 15.3766C0.43653 14.0972 0.933172 12.892 1.5185 11.7425C1.50076 11.7239 1.48303 11.6868 1.44755 11.6683C0.11726 10.1108 -0.450331 7.90438 0.56069 5.73502C1.44755 3.86234 3.39864 2.30485 5.9528 1.28507C8.41827 0.302371 11.4513 -0.179708 14.5908 0.0613317C14.8391 0.0798732 15.0165 0.302371 14.9988 0.54341C14.981 0.673201 14.9278 0.784449 14.8391 0.877157C13.2605 2.30485 12.6752 4.45566 12.0899 6.58793C11.7351 7.84875 11.3981 9.10957 10.866 10.2591C10.866 10.2777 10.8483 10.2777 10.8483 10.2962C9.51798 12.9847 7.4782 13.9489 5.54485 13.8191C4.76441 13.7635 3.98397 13.541 3.29222 13.1702C2.902 12.9662 2.51178 12.7066 2.17478 12.41C1.6604 13.4483 1.2347 14.5422 0.862222 15.6918C0.791274 15.9328 0.542953 16.0626 0.312369 15.9699C0.0640482 15.8772 -0.060112 15.6176 0.028574 15.3766ZM3.68244 12.3543C4.2855 12.6695 4.92404 12.8735 5.59806 12.9106C7.22988 13.0218 8.93265 12.1875 10.0678 9.86978V9.85123C10.5822 8.77583 10.9015 7.55209 11.2208 6.34689C11.7529 4.40004 12.2672 2.45318 13.5266 0.932781C10.866 0.858615 8.32959 1.32215 6.2366 2.15652C3.89529 3.08359 2.10383 4.49275 1.32339 6.16148C0.525215 7.8673 0.933171 9.62874 1.94419 10.9081C2.40536 10.0923 2.902 9.31353 3.45185 8.59041C4.94178 6.58793 6.82193 4.88212 9.12776 3.52859C9.34061 3.3988 9.60667 3.49151 9.71309 3.69546C9.83725 3.91796 9.74856 4.19608 9.55346 4.30733C7.35404 5.60523 5.58032 7.23688 4.14361 9.14666C3.57602 9.90686 3.06164 10.7227 2.58273 11.5941C2.91974 11.8723 3.29222 12.1318 3.68244 12.3543Z" fill="#52A04C"/>
</svg>
