<svg width="30" height="39" viewBox="0 0 30 39" fill="none" xmlns="http://www.w3.org/2000/svg">
<path d="M7.03145 9.07683C7.03338 9.2134 7.08923 9.34375 7.18695 9.43979C7.28467 9.53582 7.41645 9.58985 7.55387 9.59022V9.62689V9.59022C7.69191 9.58867 7.82372 9.53288 7.92051 9.43503C8.01729 9.33718 8.07117 9.20524 8.07038 9.06802C8.04534 8.40277 7.87939 7.75024 7.58338 7.15306C7.29522 6.56482 6.84616 6.06917 6.28766 5.7229L6.23601 5.69136L6.28766 5.66055C6.80069 5.34684 7.2216 4.90443 7.50812 4.3778L7.54059 4.31986L7.57305 4.3778C7.73217 4.66627 7.93084 4.93137 8.16336 5.1655C8.35189 5.35427 8.56245 5.51998 8.79056 5.65909L8.84147 5.68989L8.79129 5.72143C8.55745 5.86584 8.34234 6.03826 8.15081 6.23482C8.07954 6.30812 8.03156 6.40065 8.01284 6.50088C7.99412 6.6011 8.00549 6.70459 8.04554 6.79843C8.08558 6.89228 8.15254 6.97233 8.23804 7.02861C8.32355 7.08489 8.42384 7.11491 8.52639 7.11493C8.59649 7.11535 8.66593 7.10159 8.7305 7.07448C8.79507 7.04737 8.85341 7.00748 8.90198 6.95724C9.3875 6.45852 10.0789 6.20549 10.957 6.20475C11.0923 6.2002 11.2205 6.1437 11.3148 6.04713C11.409 5.95056 11.4619 5.82144 11.4624 5.68689C11.4629 5.55235 11.4109 5.42285 11.3173 5.32563C11.2238 5.2284 11.0959 5.171 10.9607 5.1655H10.9393C10.0737 5.1655 9.38972 4.91907 8.91009 4.43868C8.08514 3.61505 8.0726 2.31176 8.0726 2.29929C8.0726 2.16157 8.01756 2.0295 7.91958 1.93212C7.82161 1.83474 7.68873 1.78003 7.55018 1.78003C7.41162 1.78003 7.27874 1.83474 7.18077 1.93212C7.0828 2.0295 7.02776 2.16157 7.02776 2.29929C7.00426 2.81407 6.87467 3.31857 6.64701 3.78153C6.1755 4.70124 5.33358 5.16696 4.14412 5.16696C4.00883 5.17152 3.88059 5.22802 3.78633 5.32459C3.69208 5.42116 3.63915 5.55028 3.63868 5.68482C3.6382 5.81937 3.69021 5.94886 3.78377 6.04609C3.87734 6.14332 4.00518 6.20072 4.14043 6.20622C5.32547 6.21429 6.16739 6.68368 6.64185 7.59972C6.8715 8.0606 7.00407 8.56323 7.03145 9.07683Z" fill="#222525"/>
<path d="M5.14525 19.41C4.60069 19.41 4.17493 19.2633 3.87904 18.9699C3.36695 18.4565 3.3581 17.6424 3.3581 17.6336C3.3581 17.4959 3.30306 17.3638 3.20508 17.2665C3.10711 17.1691 2.97423 17.1144 2.83568 17.1144C2.69712 17.1144 2.56424 17.1691 2.46627 17.2665C2.3683 17.3638 2.31326 17.4959 2.31326 17.6336C2.2976 17.9522 2.21807 18.2643 2.07935 18.5519C1.7842 19.132 1.27801 19.4144 0.52242 19.4144C0.383866 19.4144 0.250986 19.4691 0.153013 19.5665C0.0550405 19.6639 0 19.7959 0 19.9336C0 20.0714 0.0550405 20.2034 0.153013 20.3008C0.250986 20.3982 0.383866 20.4529 0.52242 20.4529C1.26768 20.458 1.77682 20.7367 2.07197 21.3037C2.21717 21.5948 2.30127 21.9122 2.31916 22.2366C2.3211 22.3732 2.37694 22.5035 2.47467 22.5995C2.57239 22.6956 2.70416 22.7496 2.84158 22.75V22.7867V22.75C2.97968 22.7486 3.11161 22.6929 3.20844 22.595C3.30526 22.4971 3.35908 22.3651 3.3581 22.2278C3.34296 21.7825 3.2386 21.3446 3.05114 20.9399L3.11238 20.8996L3.13526 20.9238C3.23494 21.019 3.36851 21.0712 3.50679 21.0689C3.64506 21.0665 3.77678 21.0099 3.87314 20.9113C4.16829 20.6069 4.59848 20.4514 5.1482 20.4507C5.28675 20.4501 5.4194 20.3949 5.51696 20.2971C5.61451 20.1993 5.66899 20.067 5.6684 19.9292C5.66782 19.7915 5.61221 19.6597 5.51383 19.5627C5.41544 19.4657 5.28232 19.4116 5.14377 19.4122L5.14525 19.41ZM3.37433 19.963C3.28596 20.0318 3.20239 20.1066 3.12419 20.1867C3.06354 20.249 3.01954 20.3254 2.99622 20.4089C2.97289 20.4924 2.97097 20.5804 2.99063 20.6649L2.92275 20.692C2.75993 20.411 2.54424 20.1637 2.28743 19.9637L2.2498 19.9344L2.28743 19.9058C2.48571 19.7536 2.65983 19.5726 2.80395 19.3689L2.8342 19.3264L2.86446 19.3689C2.94576 19.4847 3.03685 19.5934 3.13673 19.6938C3.21189 19.7694 3.292 19.84 3.37654 19.905L3.41418 19.9336L3.37433 19.963Z" fill="#222525"/>
<path d="M11.551 35.5526L11.5384 35.5489H11.4705C10.9356 35.5452 10.5165 35.3964 10.2243 35.1052C9.71217 34.5955 9.70331 33.7777 9.70331 33.7696C9.70331 33.6319 9.64827 33.4998 9.5503 33.4025C9.45233 33.3051 9.31945 33.2504 9.18089 33.2504C9.04234 33.2504 8.90946 33.3051 8.81149 33.4025C8.71351 33.4998 8.65847 33.6319 8.65847 33.7696C8.64427 34.0893 8.56468 34.4027 8.42456 34.6908C8.12941 35.2709 7.62323 35.5533 6.86763 35.5533C6.72908 35.5533 6.5962 35.608 6.49823 35.7054C6.40026 35.8028 6.34521 35.9349 6.34521 36.0726C6.34521 36.2103 6.40026 36.3424 6.49823 36.4397C6.5962 36.5371 6.72908 36.5918 6.86763 36.5918C7.6129 36.597 8.12203 36.8749 8.41719 37.4426C8.56369 37.7332 8.64786 38.0509 8.66438 38.3755C8.66631 38.5121 8.72216 38.6424 8.81988 38.7385C8.9176 38.8345 9.04937 38.8885 9.1868 38.8889C9.32458 38.8874 9.45617 38.8318 9.55291 38.7342C9.64965 38.6367 9.70371 38.5051 9.70331 38.3682C9.68778 37.922 9.58345 37.4832 9.39635 37.0774L9.45686 37.0377L9.48121 37.0619C9.58079 37.1573 9.71432 37.2096 9.85259 37.2074C9.99086 37.2052 10.1226 37.1487 10.2191 37.0502C10.5142 36.7451 10.9452 36.5904 11.4942 36.5896C11.628 36.5898 11.7567 36.5389 11.8539 36.4475C11.9511 36.3561 12.0093 36.2311 12.0164 36.0983C12.0236 35.9655 11.9793 35.835 11.8925 35.7337C11.8058 35.6325 11.6833 35.5682 11.5502 35.554L11.551 35.5526ZM9.71881 36.1019C9.63026 36.1708 9.54667 36.2458 9.46867 36.3263C9.40802 36.3886 9.36402 36.465 9.34069 36.5485C9.31736 36.6321 9.31545 36.7201 9.33511 36.8045L9.26722 36.8317C9.10462 36.5503 8.8889 36.3027 8.63191 36.1026L8.59502 36.074L8.63265 36.0447C8.83109 35.8927 9.00524 35.7117 9.14916 35.5078L9.17942 35.4653L9.20967 35.5078C9.29097 35.6236 9.38206 35.7323 9.48195 35.8327C9.5571 35.9083 9.63722 35.9789 9.72176 36.044L9.75939 36.0733L9.71881 36.1019Z" fill="#222525"/>
<path d="M29.8615 34.8558C28.6181 32.6636 27.0974 31.6038 26.5019 31.2496C25.2195 30.4883 23.2766 30.3995 21.927 30.3995C21.0268 30.3995 20.1111 30.4443 19.2249 30.4875C18.3904 30.5279 17.6082 30.5653 16.9087 30.5653C16.097 30.5653 15.5222 30.5132 15.1016 30.4017H15.0884C13.848 30.0291 13.8967 29.3955 14.0996 28.2132C14.211 27.5605 14.3269 26.8879 14.0797 26.2667C13.9218 25.8861 13.6591 25.5802 13.4053 25.2839C13.2652 25.1288 13.1362 24.9641 13.0193 24.7911L12.8482 24.5131L13.0695 24.2747C13.1781 24.1641 13.2986 24.0657 13.4289 23.9814C14.0649 23.5553 14.6095 23.5222 14.763 23.5222H14.8094C14.829 23.5245 14.8487 23.5257 14.8685 23.5259C14.9898 23.5248 15.1069 23.4813 15.1992 23.403C15.2915 23.3247 15.3531 23.2165 15.3732 23.0976C15.3945 22.9641 15.3651 22.8276 15.2908 22.7144C15.2165 22.6012 15.1025 22.5195 14.971 22.4852C14.5733 22.3737 13.7122 21.9916 13.296 21.3411L13.2887 21.3293C13.2569 21.2758 13.2296 21.2244 13.2075 21.1775L13.0725 20.8907L13.3071 20.678C13.3853 20.6047 13.4886 20.5248 13.572 20.458C14.0243 20.0986 14.6405 19.6095 14.8626 18.634L14.8744 18.5937C14.9408 18.3964 14.9843 18.0729 14.8117 17.6402C14.5541 16.9919 13.9218 16.3435 12.8784 15.66C12.1568 15.1855 11.9265 14.8466 11.8601 14.6457L11.8159 14.5107L11.8609 14.3765C11.9169 14.2107 12.0859 13.9306 12.9087 13.4069C13.6886 12.9111 16.3332 11.1098 17.6392 8.76584C18.0257 8.09468 18.2137 7.3287 18.1816 6.55604C18.1816 6.53257 18.1816 6.51717 18.1816 6.50397V6.4871V6.4673C18.2037 6.15193 18.2044 5.79182 18.2052 5.3745C18.2052 4.11815 18.2096 2.39828 18.887 0.753956L18.9526 0.59407C18.9752 0.530307 18.9817 0.462037 18.9717 0.39519C18.9617 0.328342 18.9354 0.26494 18.8951 0.210492C18.8488 0.145568 18.7875 0.0925907 18.7164 0.0559761C18.6453 0.0193615 18.5664 0.000169643 18.4863 0C18.2236 0 17.9831 0.200957 17.8222 0.551532C17.1448 2.32201 17.1426 4.08368 17.1404 5.36937V5.37817C17.1404 5.78082 17.1404 6.12846 17.1183 6.40496C17.1149 6.46309 17.1149 6.52137 17.1183 6.57951C17.1449 7.16329 17.0031 7.74247 16.7095 8.24878C15.7672 9.93564 13.8317 11.5587 12.3353 12.5121C11.5672 13.0006 10.7806 13.6189 10.774 14.4924C10.7688 15.1899 11.2654 15.8573 12.2911 16.532C13.42 17.2742 13.7417 17.803 13.8332 18.0517L13.8804 18.18L13.8443 18.312C13.8406 18.3245 13.8384 18.3362 13.8354 18.3494C13.7041 18.9926 13.3189 19.3029 12.9109 19.6234C12.266 20.1368 11.6948 20.7316 12.3825 21.8743L12.3877 21.8823C12.5206 22.0918 12.6782 22.2849 12.857 22.4573L13.2333 22.824L12.8009 23.1174C12.2372 23.5039 11.9332 23.9102 11.8712 24.3642C11.7819 25.0126 12.2313 25.5377 12.5928 25.9594C12.7987 26.2 12.9928 26.4266 13.0857 26.6422L13.0931 26.6598C13.2237 27.0053 13.1389 27.5011 13.0489 28.0262C12.8127 29.405 12.7537 30.8014 14.7932 31.4094L14.8094 31.4138C15.326 31.5525 15.99 31.6177 16.9117 31.6177C17.6215 31.6177 18.414 31.5796 19.2522 31.5385H19.2707C20.1561 31.496 21.0718 31.4513 21.961 31.4513C23.8795 31.4513 25.1486 31.6713 25.9544 32.1524C26.5949 32.533 27.9194 33.32 29.0646 35.6068C29.1083 35.6772 29.1701 35.7347 29.2436 35.7734C29.3172 35.8121 29.3998 35.8305 29.4829 35.8268C29.5707 35.8284 29.6573 35.8078 29.7348 35.7668C29.8122 35.7259 29.8779 35.666 29.9257 35.5929C30.0098 35.4682 30.0614 35.2335 29.8615 34.8558Z" fill="#222525"/>
<path d="M19.3872 5.37894C19.4543 5.38583 19.522 5.37948 19.5866 5.36026C19.6511 5.34103 19.7112 5.30931 19.7634 5.26691C19.8156 5.22452 19.8589 5.17229 19.8907 5.11322C19.9225 5.05416 19.9422 4.98943 19.9488 4.92276C19.9488 4.91616 20.041 4.32062 20.908 3.70601L20.9154 3.70161C20.9372 3.69526 20.9598 3.69254 20.9825 3.69354C21.1818 3.69354 21.8067 3.82043 23.3128 4.99317C24.351 5.79993 25.2644 6.68957 25.2733 6.69837C25.319 6.75488 25.3763 6.80112 25.4413 6.83403C25.5063 6.86695 25.5776 6.88581 25.6505 6.88935C25.7234 6.89289 25.7962 6.88105 25.8641 6.8546C25.9321 6.82814 25.9936 6.78768 26.0447 6.73588C26.0958 6.68408 26.1352 6.62211 26.1604 6.55405C26.1857 6.486 26.1961 6.4134 26.191 6.34105C26.186 6.2687 26.1656 6.19823 26.1311 6.13429C26.0967 6.07035 26.049 6.01438 25.9913 5.97008C25.3109 5.31551 24.5966 4.69664 23.8514 4.11599C22.5638 3.12881 21.6533 2.66969 20.9818 2.66969C20.7443 2.66459 20.5115 2.73556 20.3177 2.87211C19.0692 3.75809 18.9393 4.71447 18.929 4.82081C18.9164 4.955 18.9574 5.08875 19.0431 5.19317C19.1288 5.29759 19.2524 5.36432 19.3872 5.37894Z" fill="#222525"/>
<path d="M24.7 9.88364C24.7208 9.77549 24.706 9.66358 24.658 9.5644C24.6099 9.46523 24.531 9.38404 24.4329 9.33284L19.8543 6.97416C19.7331 6.91283 19.5924 6.90154 19.4628 6.94274C19.3332 6.98393 19.2252 7.07429 19.1622 7.19418C19.1007 7.31464 19.0895 7.45433 19.1309 7.58297C19.1724 7.7116 19.2631 7.81883 19.3836 7.8814L19.7592 8.07429L19.74 8.10729C19.4821 8.58407 19.3689 9.1249 19.4138 9.66434V9.70028L19.1423 9.72375C19.0694 9.72179 18.997 9.73519 18.9297 9.76305C18.8624 9.79091 18.8018 9.83261 18.7519 9.88541C18.702 9.93821 18.6639 10.0009 18.6401 10.0694C18.6163 10.1379 18.6074 10.2106 18.6139 10.2827C18.6204 10.3549 18.6422 10.4249 18.6778 10.4881C18.7135 10.5513 18.7622 10.6062 18.8207 10.6494C18.8793 10.6925 18.9464 10.7229 19.0175 10.7384C19.0887 10.7539 19.1624 10.7543 19.2338 10.7395L24.2418 10.2944C24.3525 10.284 24.4568 10.2385 24.5394 10.1645C24.6219 10.0905 24.6783 9.99199 24.7 9.88364ZM20.4395 9.60787V9.57047C20.4114 9.05707 20.562 8.7241 20.6535 8.57155L20.6719 8.54221L22.403 9.43405L20.4395 9.60787Z" fill="#222525"/>
</svg>
