<svg width="30" height="11" viewBox="0 0 30 11" fill="none" xmlns="http://www.w3.org/2000/svg">
<path fill-rule="evenodd" clip-rule="evenodd" d="M21.3502 7.28015C21.3563 5.7554 20.0988 5.09684 19.1229 4.58577C18.5051 4.26223 18.0002 3.9978 18.0002 3.61015C18.0002 3.28015 18.3202 2.93015 19.0002 2.84015C19.8095 2.76008 20.6253 2.90181 21.3602 3.25015L21.7802 1.25015C21.0638 0.981507 20.3053 0.84267 19.5402 0.840149C17.1802 0.840149 15.5402 2.10015 15.5402 3.90015C15.5402 5.23015 16.7302 5.97015 17.6302 6.41015C18.5302 6.85015 18.8802 7.16015 18.8702 7.56015C18.8702 8.18015 18.1302 8.46015 17.4402 8.47015C16.589 8.48111 15.7492 8.27459 15.0002 7.87015L14.5702 9.87015C15.4176 10.201 16.3204 10.3673 17.2302 10.3601C19.7402 10.3601 21.3902 9.12015 21.4002 7.20015L21.3502 7.28015ZM14.8602 1.00015L12.8602 10.2501H10.4602L12.4602 1.00015H14.8602ZM24.9202 7.00015L26.1802 3.53015L26.9102 7.00015H24.9202ZM29.8102 10.2801H27.5902L27.3002 8.90015H24.2902L23.8002 10.2801H21.2802L24.8702 1.71015C25.0357 1.3024 25.4301 1.03417 25.8702 1.03015H27.8702L29.8102 10.2801ZM7.61016 10.2201L11.4902 0.970149H8.89016L6.40016 7.26015L5.40016 1.91015C5.31164 1.3665 4.84096 0.967908 4.29016 0.970149H0.220156L0.160156 1.24015C0.976494 1.39987 1.76942 1.66194 2.52016 2.02015C2.83991 2.17049 3.0566 2.47841 3.09016 2.83015L5.00016 10.2201H7.61016Z" fill="#2A2A6C"/>
</svg>
