<svg width="202" height="193" viewBox="0 0 202 193" fill="none" xmlns="http://www.w3.org/2000/svg">
<path d="M165.568 119.486C151.059 93.3633 129.277 79.7237 102.307 79.9885C81.9179 80.7851 62.2139 87.4566 45.4887 99.2263C30.2356 109.352 17.4752 122.894 8.1749 138.824C21.1499 152.013 36.8901 162.042 54.1982 168.148C73.3226 175.523 94.0752 177.231 114.034 173.072C140.229 166.812 157.965 148.323 165.568 119.486Z" fill="#F2CEDF" fill-opacity="0.6"/>
<path d="M175.241 125.058C181.882 95.9232 174.775 71.2256 154.521 53.4145C138.811 40.3937 119.689 32.2034 99.3793 29.7974C81.2633 27.1507 62.7226 28.7109 45.1624 34.3597C46.0147 52.8416 51.0356 70.8171 59.8433 86.9191C69.1553 105.179 83.4636 120.307 101.099 130.538C124.778 143.369 150.326 141.448 175.241 125.058Z" fill="#F2CEDF" fill-opacity="0.6"/>
</svg>
