<svg width="93" height="93" viewBox="0 0 93 93" fill="none" xmlns="http://www.w3.org/2000/svg">
<path d="M64.1452 76.4717C74.8011 64.8827 77.9286 51.6312 73.2051 38.108C69.981 28.7728 63.0812 19.6934 53.86 12.5322C46.1645 6.42685 37.1668 2.14094 27.5506 0C23.132 8.71027 20.7724 18.3041 20.6508 28.0535C20.409 39.7065 23.1496 50.752 28.3889 59.1281C36.0141 71.3565 48.3628 77.3189 64.1452 76.4717Z" fill="#B93272"/>
<path opacity="0.6" d="M64.1453 76.4716C60.5664 65.1863 53.054 58.137 42.3175 56.043C34.151 54.6906 25.7651 55.6662 18.1361 58.8563C11.2294 61.5305 5.02733 65.7287 0 71.1327C4.05133 77.2906 9.4655 82.4513 15.8308 86.2224C22.8114 90.6325 30.913 92.9831 39.19 93C50.12 92.7123 58.7125 87.0057 64.1453 76.4716Z" fill="#DD598B"/>
<path d="M77.5095 60.231C78.0606 60.0727 78.5994 59.8751 79.1216 59.6395C79.6214 59.4157 80.2017 59.112 80.8627 58.7444C81.5999 58.3243 82.3106 57.8599 82.9906 57.3537C83.3775 57.0819 83.7483 56.7782 84.1352 56.4585C84.5221 56.1388 84.9252 55.8032 85.3121 55.4195C86.1284 54.6444 86.8981 53.8224 87.6174 52.9578C88.3765 52.0082 89.0712 51.0096 89.697 49.9687C90.0194 49.4412 90.3096 48.8657 90.5997 48.3702C90.8899 47.8747 91.1317 47.2193 91.3735 46.6438C91.8472 45.4702 92.2298 44.2625 92.5181 43.0312L92.7116 42.1201C92.7116 41.8164 92.8083 41.5127 92.8567 41.209C92.905 40.9052 92.9534 40.6015 92.9856 40.2978C93.0179 39.9941 92.9856 39.7064 92.9856 39.4027C92.9856 39.0989 92.9856 38.8272 92.9856 38.5395V37.6763C92.9856 37.3886 92.9856 37.1008 92.9856 36.8291C92.9856 36.5574 92.9856 36.2856 92.9856 36.0139C92.9548 35.4783 92.8956 34.9448 92.8083 34.4154C92.7116 33.9198 92.6471 33.4403 92.5504 32.9767C92.4536 32.5132 92.3247 32.0976 92.2118 31.682C92.099 31.2664 92.0829 31.2983 92.0345 31.1065L91.8894 30.5311L91.5186 29.556L91.3413 29.1244C91.2833 28.9934 91.2187 28.8653 91.1478 28.7407C90.6481 27.7657 90.2773 27.1742 90.2773 27.1742C90.2773 27.1742 90.2773 27.7976 90.2773 28.8526C90.2773 29.3642 90.2773 30.0035 90.1967 30.7229C90.1967 30.8987 90.1967 31.0745 90.1967 31.2664V31.8418C90.1967 32.2414 90.1967 32.657 90.1967 33.0886C90.0839 33.9358 90.0194 34.847 89.8743 35.8061C89.8743 36.0458 89.8743 36.2856 89.7614 36.5254C89.6486 36.7652 89.7614 37.0209 89.6325 37.2607C89.5035 37.5005 89.5357 37.7562 89.5035 38.012C89.4713 38.2677 89.3907 38.5075 89.3262 38.7633C89.2617 39.019 89.2295 39.2748 89.165 39.5305L88.9715 40.2818C88.9715 40.5376 88.8425 40.8093 88.7619 41.0651C88.6813 41.3208 88.6169 41.5766 88.5362 41.8324C88.2299 42.8554 87.843 43.8784 87.4561 44.9015C87.3594 45.1572 87.2466 45.397 87.1337 45.6528C87.0209 45.9085 86.9403 46.1643 86.8113 46.404C86.5695 46.8996 86.3599 47.3951 86.102 47.8747C85.6345 48.8497 85.0864 49.7769 84.4899 50.688C83.8934 51.5991 83.4259 52.4463 82.8778 53.2456C82.3297 54.0448 81.7977 54.8441 81.2657 55.5154C80.7337 56.1868 80.2662 56.8422 79.8309 57.4176C79.3957 57.9931 78.9926 58.4726 78.6541 58.8723L77.5095 60.231Z" fill="#222525"/>
</svg>
