<svg width="67" height="24" viewBox="0 0 67 24" fill="none" xmlns="http://www.w3.org/2000/svg">
<g clip-path="url(#clip0)">
<path d="M16.071 19.5898C18.7408 16.6211 19.5244 13.2264 18.341 9.76216C17.5332 7.37076 15.8044 5.04487 13.4941 3.21037C11.566 1.64637 9.31165 0.548446 6.90233 0C5.79526 2.23132 5.20406 4.68898 5.17361 7.18649C5.11303 10.1716 5.79967 13.0012 7.11237 15.1469C9.02284 18.2795 12.1168 19.8069 16.071 19.5898Z" fill="#B93272"/>
<path opacity="0.6" d="M16.0714 19.59C15.1748 16.699 13.2926 14.8932 10.6025 14.3567C8.55645 14.0103 6.45537 14.2602 4.54395 15.0774C2.8135 15.7625 1.25959 16.838 0 18.2223C1.01505 19.7998 2.37156 21.1218 3.96636 22.0878C5.71534 23.2176 7.74516 23.8197 9.81897 23.8241C12.5575 23.7504 14.7103 22.2885 16.0714 19.59Z" fill="#DD598B"/>
<path d="M19.4199 15.4296C19.558 15.3891 19.693 15.3384 19.8238 15.2781C19.949 15.2208 20.0944 15.143 20.26 15.0488C20.4448 14.9412 20.6228 14.8222 20.7932 14.6925C20.8901 14.6229 20.983 14.5451 21.08 14.4632C21.1769 14.3813 21.2779 14.2953 21.3748 14.1971C21.5794 13.9985 21.7722 13.7879 21.9524 13.5664C22.1426 13.3232 22.3167 13.0674 22.4735 12.8007C22.5542 12.6656 22.6269 12.5182 22.6996 12.3912C22.7723 12.2643 22.8329 12.0964 22.8935 11.949C23.0122 11.6483 23.108 11.339 23.1803 11.0235L23.2288 10.7901C23.2288 10.7123 23.253 10.6345 23.2651 10.5567C23.2772 10.4789 23.2893 10.4011 23.2974 10.3233C23.3055 10.2455 23.2974 10.1718 23.2974 10.094C23.2974 10.0162 23.2974 9.94658 23.2974 9.87287V9.65175C23.2974 9.57804 23.2974 9.50434 23.2974 9.43472C23.2974 9.36511 23.2974 9.2955 23.2974 9.22589C23.2897 9.0887 23.2749 8.95201 23.253 8.8164C23.2288 8.68946 23.2126 8.56661 23.1884 8.44786C23.1641 8.32911 23.1318 8.22264 23.1035 8.11618C23.0753 8.00971 23.0712 8.0179 23.0591 7.96876L23.0228 7.82135L22.9299 7.57156L22.8854 7.461C22.8709 7.42744 22.8547 7.39464 22.837 7.36272C22.7118 7.11294 22.6189 6.96143 22.6189 6.96143C22.6189 6.96143 22.6189 7.12113 22.6189 7.39139C22.6189 7.52242 22.6189 7.68622 22.5987 7.87049C22.5987 7.91553 22.5987 7.96057 22.5987 8.00971V8.15713C22.5987 8.2595 22.5987 8.36596 22.5987 8.47653C22.5704 8.69355 22.5542 8.92696 22.5179 9.17265C22.5179 9.23408 22.5179 9.2955 22.4896 9.35692C22.4613 9.41834 22.4896 9.48386 22.4573 9.54528C22.425 9.60671 22.4331 9.67223 22.425 9.73774C22.4169 9.80326 22.3967 9.86468 22.3806 9.9302C22.3644 9.99572 22.3563 10.0612 22.3402 10.1268L22.2917 10.3192C22.2917 10.3847 22.2594 10.4543 22.2392 10.5199C22.219 10.5854 22.2028 10.6509 22.1826 10.7164C22.1059 10.9785 22.009 11.2406 21.912 11.5026C21.8878 11.5681 21.8595 11.6296 21.8312 11.6951C21.803 11.7606 21.7828 11.8261 21.7505 11.8875C21.6899 12.0145 21.6374 12.1414 21.5727 12.2643C21.4556 12.5141 21.3183 12.7516 21.1688 12.985C21.0194 13.2184 20.9023 13.4354 20.7649 13.6402C20.6276 13.8449 20.4943 14.0496 20.361 14.2216C20.2277 14.3936 20.1106 14.5615 20.0015 14.7089C19.8925 14.8563 19.7915 14.9792 19.7067 15.0815L19.4199 15.4296Z" fill="#222525"/>
<path d="M25.6641 6.76904H27.5543V13.8777H27.6028C28.0996 13.2735 28.7143 12.78 29.4083 12.4281C30.1137 12.0798 30.8896 11.9032 31.6742 11.9122C32.5032 11.9053 33.3259 12.0596 34.0976 12.3667C34.8044 12.6519 35.4443 13.0843 35.9758 13.6361C36.4999 14.1865 36.9117 14.8363 37.1875 15.5484C37.769 17.0995 37.769 18.8129 37.1875 20.364C36.9094 21.0761 36.4979 21.7269 35.9758 22.2804C35.4641 22.8221 34.8501 23.2538 34.1703 23.5498C33.4649 23.8514 32.7064 24.0047 31.9408 24.0002C31.0145 24.02 30.0994 23.7926 29.2871 23.341C28.5853 22.9547 28.0024 22.3793 27.6028 21.6784H27.5543V23.7259H25.6641V6.76904ZM27.5543 17.9562C27.5478 18.5349 27.6422 19.1102 27.833 19.6556C28.0091 20.1557 28.284 20.6141 28.6409 21.0028C28.9986 21.3915 29.4318 21.701 29.9132 21.9118C30.4393 22.1335 31.0034 22.2476 31.5732 22.2476C32.143 22.2476 32.7071 22.1335 33.2333 21.9118C33.7146 21.701 34.1478 21.3915 34.5056 21.0028C34.8624 20.6141 35.1373 20.1557 35.3134 19.6556C35.6848 18.5638 35.6848 17.3773 35.3134 16.2855C35.1374 15.784 34.8616 15.3246 34.503 14.9357C34.1445 14.5469 33.7109 14.2369 33.2292 14.0251C32.1655 13.5828 30.9728 13.5828 29.9091 14.0251C29.4274 14.2369 28.9938 14.5469 28.6353 14.9357C28.2768 15.3246 28.0009 15.784 27.825 16.2855C27.6401 16.8223 27.5485 17.3876 27.5543 17.9562Z" fill="#222525"/>
<path d="M39.5254 6.76904H41.4157V23.7054H39.5254V6.76904Z" fill="#222525"/>
<path d="M44.1543 12.2065H46.0446V23.7049H44.1543V12.2065Z" fill="#222525"/>
<path d="M49.2352 20.683C49.5705 21.1289 49.9807 21.5115 50.4469 21.8132C50.959 22.1082 51.5429 22.2501 52.1312 22.2226C52.4289 22.2225 52.7257 22.1882 53.0158 22.1203C53.3015 22.0631 53.5751 21.9549 53.8236 21.8009C54.0556 21.6646 54.2544 21.477 54.4052 21.2522C54.5585 21.0081 54.6346 20.7223 54.6233 20.4332C54.6344 20.1638 54.5623 19.8976 54.4173 19.6715C54.2716 19.4686 54.086 19.2984 53.8721 19.172C53.6291 19.0262 53.3684 18.9133 53.0966 18.8362C52.8057 18.7598 52.5069 18.686 52.1999 18.6151C51.6667 18.5045 51.1578 18.3694 50.6731 18.2056C50.2231 18.0781 49.7943 17.8835 49.4008 17.6282C49.0402 17.3978 48.7407 17.0815 48.5284 16.7069C48.2939 16.2633 48.181 15.7642 48.2012 15.2614C48.1914 14.7447 48.3168 14.2347 48.5647 13.7831C48.8052 13.3614 49.1366 13.0002 49.5341 12.7267C49.9525 12.4579 50.4107 12.2588 50.8912 12.137C51.3947 11.9858 51.9172 11.9099 52.4422 11.9118C53.2165 11.9057 53.9824 12.075 54.6839 12.4073C55.3825 12.7409 55.9511 13.3015 56.2995 14.0002L54.7243 15.0566C54.4851 14.6546 54.1575 14.3141 53.767 14.0616C53.3324 13.797 52.8318 13.6648 52.3251 13.6808C52.053 13.6821 51.782 13.7151 51.5173 13.779C51.2644 13.8381 51.0228 13.9391 50.8024 14.078C50.5954 14.2047 50.4177 14.3751 50.2813 14.5775C50.1442 14.7844 50.0724 15.0286 50.0753 15.2778C50.0691 15.5089 50.1517 15.7336 50.3056 15.9043C50.4915 16.1075 50.7171 16.2692 50.968 16.3793C51.2641 16.5229 51.5723 16.6394 51.8889 16.7273C52.2362 16.8215 52.5957 16.9075 52.9673 16.9689C53.451 17.0667 53.9285 17.1939 54.3971 17.3498C54.8225 17.4952 55.2231 17.7065 55.5846 17.9763C55.9247 18.2383 56.2011 18.5759 56.3924 18.9631C56.5995 19.4167 56.6991 19.9131 56.6832 20.4127C56.6953 20.9959 56.556 21.572 56.2793 22.0834C56.0295 22.5333 55.6761 22.9154 55.2494 23.1972C54.8041 23.4907 54.3122 23.704 53.7953 23.8278C53.251 23.9558 52.694 24.0204 52.1353 24.0203C51.278 24.0403 50.4253 23.8872 49.627 23.5699C48.8489 23.2003 48.1894 22.6155 47.7246 21.8828L49.2352 20.683Z" fill="#222525"/>
<path d="M59.5594 20.6831C59.8947 21.1291 60.3049 21.5116 60.7712 21.8133C61.2832 22.1083 61.8671 22.2503 62.4554 22.2228C62.7532 22.2227 63.0499 22.1883 63.34 22.1204C63.6258 22.0632 63.8993 21.9551 64.1478 21.801C64.3799 21.6647 64.5787 21.4772 64.7294 21.2523C64.8827 21.0082 64.9588 20.7225 64.9475 20.4333C64.9586 20.1639 64.8866 19.8977 64.7415 19.6717C64.6 19.4816 64.423 19.3215 64.2205 19.2008C63.9776 19.055 63.7169 18.9421 63.445 18.865C63.1542 18.7886 62.8553 18.7149 62.5483 18.6439C62.0152 18.5333 61.5063 18.3982 61.0216 18.2344C60.5716 18.1069 60.1428 17.9123 59.7493 17.657C59.3887 17.4266 59.0892 17.1103 58.8768 16.7357C58.6424 16.2921 58.5294 15.793 58.5497 15.2902C58.5399 14.7735 58.6653 14.2635 58.9132 13.8119C59.1536 13.3902 59.485 13.029 59.8826 12.7555C60.2981 12.4709 60.7564 12.2565 61.2397 12.1208C61.7431 11.9695 62.2656 11.8937 62.7907 11.8955C63.5648 11.8952 64.3293 12.0701 65.0283 12.4074C65.7269 12.7411 66.2955 13.3017 66.6439 14.0003L65.0687 15.0568C64.8295 14.6547 64.5019 14.3142 64.1115 14.0617C63.6768 13.7971 63.1762 13.6649 62.6695 13.6809C62.4042 13.6838 62.14 13.7168 61.8819 13.7792C61.629 13.8383 61.3874 13.9393 61.167 14.0781C60.96 14.2049 60.7823 14.3752 60.6459 14.5777C60.5088 14.7845 60.437 15.0287 60.4399 15.2779C60.4337 15.5091 60.5163 15.7337 60.6702 15.9044C60.8443 16.1031 61.0558 16.2646 61.2922 16.3794C61.5883 16.5231 61.8965 16.6395 62.2131 16.7275C62.5605 16.8217 62.9199 16.9077 63.2915 16.9691C63.7752 17.0669 64.2527 17.194 64.7214 17.3499C65.1467 17.4953 65.5473 17.7067 65.9088 17.9764C66.249 18.2385 66.5253 18.5761 66.7166 18.9633C66.9237 19.4169 67.0233 19.9133 67.0075 20.4129C67.0195 20.996 66.8802 21.5722 66.6035 22.0836C66.3537 22.5335 66.0004 22.9156 65.5736 23.1974C65.1283 23.4908 64.6364 23.7041 64.1195 23.828C63.5752 23.956 63.0182 24.0205 62.4595 24.0204C61.6022 24.0405 60.7495 23.8874 59.9512 23.57C59.1731 23.2004 58.5137 22.6156 58.0488 21.8829L59.5594 20.6831Z" fill="#222525"/>
</g>
<defs>
<clipPath id="clip0">
<rect width="67" height="24" fill="white"/>
</clipPath>
</defs>
</svg>
