<svg width="84" height="10" viewBox="0 0 84 10" fill="none" xmlns="http://www.w3.org/2000/svg">
<path d="M9.92055 2.88968L11.2784 2.21403C11.2784 2.21403 9.43061 -0.306667 5.34313 0.0311579C1.26965 0.381976 0.219786 3.51335 0.219786 3.51335C0.219786 3.51335 -1.09605 7.24243 2.71147 9.25638C2.71147 9.25638 6.58897 11.1794 10.0885 8.8406C10.0885 8.8406 12.1743 7.46331 12.1043 4.79969H7.97479L8.00279 6.06004H10.3125C10.3125 6.06004 9.57059 8.72366 6.05704 8.69767C2.54349 8.67168 1.75959 6.29391 1.75959 6.29391C1.75959 6.29391 0.485752 2.8377 4.36326 1.56436C4.36326 1.56436 7.55485 0.524902 9.92055 2.88968Z" fill="black"/>
<path d="M19.0333 9.90612C24.3806 9.9581 24.1986 6.85271 24.1986 6.85271V0.797852H22.8408V6.39794C22.8408 6.39794 23.0928 8.81469 19.0333 8.71074C14.9598 8.81469 15.2258 6.39794 15.2258 6.39794V0.797852H13.8679V6.85271C13.8679 6.83972 13.6859 9.9581 19.0333 9.90612Z" fill="black"/>
<path d="M26.3555 0.928711H34.6704V2.0981H27.7413V4.52784H33.1866V5.73621H27.7413V8.51677H34.6704V9.73813H26.3555V0.928711Z" fill="black"/>
<path d="M43.9643 6.21612C46.358 5.76136 46.218 3.61747 46.218 3.61747C46.218 0.823921 43.6003 0.836915 43.6003 0.836915L36.6292 0.849909L36.6152 9.75028H37.8751L37.8891 6.30707H42.3965L44.7342 9.75028H46.204L43.9643 6.21612ZM43.1244 5.04673H37.9031V2.0323L43.2504 2.0193C43.2504 2.0193 44.8882 1.86338 44.8882 3.53951C44.8882 5.21564 43.1244 5.04673 43.1244 5.04673Z" fill="black"/>
<path d="M48.0527 0.836914H49.4246V8.50293H56.5076V9.73729H48.0527V0.836914Z" fill="black"/>
<path d="M64.2061 0.836914H62.4423L57.8789 9.73729H59.2927L60.3006 7.68436L66.3198 7.69735L67.3277 9.73729H68.7695L64.2061 0.836914ZM60.9725 6.45L63.3102 1.92835L65.6479 6.45H60.9725Z" fill="black"/>
<path d="M71.5554 0.836914H70.2676V9.73729H71.5554V0.836914Z" fill="black"/>
<path d="M73.7676 0.836914H75.5734L82.6005 8.30803V0.836914H84.0003V9.73729H82.2225L75.1534 2.24019V9.73729H73.7676V0.836914Z" fill="black"/>
</svg>
